<?xml version="1.0" encoding="UTF-8"?>
<svg xmlns="http://www.w3.org/2000/svg" viewBox="0 0 5826.23 2118.32">
  <defs>
    <style>
      .uuid-0c3ba174-3246-46e8-8f45-7e7956ee43ca {
        stroke-miterlimit: 10;
      }

      .uuid-0c3ba174-3246-46e8-8f45-7e7956ee43ca, .uuid-8bfd48f2-9fee-4d59-8509-58103de4d34f {
        fill: none;
        stroke: #fff;
        stroke-width: 32px;
      }
    </style>
  </defs>
  <g id="uuid-24342b5f-ef46-4911-bb9c-c1e5f44a3a72" data-name="Capa 1">
    <g>
      <path class="uuid-8bfd48f2-9fee-4d59-8509-58103de4d34f" d="m2894.86,2102.28c-147.8.04-397.24.04-659.27.04-607.15,0-1064.1-360.24-1064.1-1023.66S1628.45,16,2296.3,16c268.45,0,437.8,54.03,511.28,90.06l-67.09,213.15c-105.45-48.06-255.64-84.06-434.6-84.06-504.86,0-840.4,303.18-840.4,834.51,0,495.3,303.57,813.51,827.63,813.51,169.39,0,440.18,2.69,580.46,1.51l21.29,217.6Z"/>
      <path class="uuid-8bfd48f2-9fee-4d59-8509-58103de4d34f" d="m16,76.03c121.42-24,313.15-42,508.09-42,277.99,0,456.96,45,591.15,147.09,111.84,78.03,178.97,198.12,178.97,357.21,0,195.12-137.42,366.24-364.28,444.27v6c204.51,48.03,444.15,207.15,444.15,507.33,0,174.12-73.48,306.18-182.12,405.24-150.19,129.09-393.06,189.12-744.56,189.12-191.74,0-338.7-12-431.38-24V76.03Zm277.99,828.54h252.45c293.99,0,466.54-144.09,466.54-339.21,0-237.15-191.7-330.21-472.92-330.21-127.8,0-201.32,9-246.06,18v651.42Zm0,969.6c54.32,9,134.22,12,233.29,12,287.57,0,552.83-99.06,552.83-393.24,0-276.18-252.45-390.24-556.02-390.24h-230.09v771.48Z"/>
    </g>
  </g>
  <g id="uuid-4d31e2aa-827f-4e77-b7fd-d78568a1bea6" data-name="Capa 2">
    <polygon class="uuid-0c3ba174-3246-46e8-8f45-7e7956ee43ca" points="2825.66 2102.28 2825.66 79.03 3129.23 79.03 4179.85 1707.29 4180.53 79.03 4483.45 78.07 5796.77 2101.33 5560.58 2101.31 4442.57 425.81 4442.57 2102.28 4161.11 2102.28 3069.4 391.48 3069.4 2102.27 2825.66 2102.28"/>
  </g>
</svg>